<?xml version="1.0" encoding="UTF-8"?>
<!DOCTYPE svg PUBLIC "-//W3C//DTD SVG 1.1//EN" "http://www.w3.org/Graphics/SVG/1.1/DTD/svg11.dtd">
<!-- Creator: CorelDRAW -->
<svg xmlns="http://www.w3.org/2000/svg" xml:space="preserve" width="8.5in" height="11in" version="1.1" style="shape-rendering:geometricPrecision; text-rendering:geometricPrecision; image-rendering:optimizeQuality; fill-rule:evenodd; clip-rule:evenodd"
viewBox="0 0 8500 11000"
 xmlns:xlink="http://www.w3.org/1999/xlink"
 xmlns:xodm="http://www.corel.com/coreldraw/odm/2003"
 role="img">
 <defs>
  <style type="text/css">
   <![CDATA[
    .fil3 {fill:#FD5E00}
    .fil1 {fill:#FE0014}
    .fil2 {fill:#FF9F01}
    .fil0 {fill:white;fill-rule:nonzero}
   ]]>
  </style>
 </defs>
 <g id="Layer_x0020_1">
  <metadata id="CorelCorpID_0Corel-Layer"/>
  <path class="fil0" d="M10970.46 3772.11c-220.38,0 -407.49,86.29 -548.98,233.56l-0.35 0c-10.08,-0.42 -20.02,-0.35 -30.24,-0.35 -287.92,0 -558.22,164.83 -689.98,420.81 -57.6,111.81 -78.96,232.08 -85.59,354.47 -5.99,109.84 0,221.3 0,330.08l0 1054.32 591.21 -0.07c0,0 0.43,-519.3 0,-965.77 -0.28,-300.54 -2.19,-568.37 0,-623.35 10.44,-259.93 81.57,-429.98 214.18,-569.07 439.92,0.35 724.74,300.11 740.6,777.47 3.67,109.56 4.72,695.83 4.72,695.83l0 684.97 591 0 0 -926.15c0,-279.95 2.4,-522.4 -17.13,-689.27 -54.5,-466.35 -339.67,-777.47 -769.43,-777.47zm1565.09 56.12l-590.57 0.7 0 926.08c0,279.95 -2.4,522.4 17.13,689.28 54.5,466.35 339.67,777.46 769.43,777.46 220.38,0 407.49,-86.29 548.98,-233.56 0.07,-0.07 0.28,0.07 0.35,0 10.08,0.42 20.37,0.35 30.6,0.35 287.92,0 557.79,-164.83 689.63,-420.74 57.6,-111.88 78.96,-232.08 85.59,-354.47 5.99,-109.84 0,-221.23 0,-330.08l0 -1054.25 -591.21 0c0,0 -0.43,519.3 0,965.77 0.28,300.54 2.19,568.37 0,623.35 -10.44,259.93 -81.57,429.98 -214.18,569.07 -439.92,-0.35 -724.74,-300.11 -740.67,-777.47 -3.67,-109.56 -5.07,-381.19 -5.07,-696.18l0 -685.32z"/>
 </g>
 <g id="Layer_x0020_1_1">
  <metadata id="CorelCorpID_1Corel-Layer"/>
  <g id="_2230338858176">
   <path class="fil1" d="M4245.48 7091.33l6.81 -2.27c-28.93,-18.11 -3.83,-1.78 -29.95,-20.8 -193.88,-141.24 -406.32,-420.78 -512.98,-628.5 -412.63,-803.57 -241.69,-1812.75 375.73,-2384.23 49.55,-45.87 121.95,-88.79 149.58,-142.25 -68,-79.43 -331.22,-220.5 -460.05,-273.99 -624.89,-259.49 -1263.52,-193.1 -1840.31,154.5 -1387.52,836.17 -1237.48,3061.7 436.97,3622.11 577.03,193.12 1175.77,107.21 1692.2,-201.33 63.74,-38.08 122.72,-92.09 182.01,-123.24z"/>
   <path class="fil2" d="M4258.27 3912.04l289.59 300.54c86.76,96.57 176.72,233.67 234.66,348.95 317.87,632.58 309.13,1256.22 -0.59,1884.44 -176.14,357.29 -327.22,428.44 -529.64,643.09l-6.81 2.27c81.69,40.12 186.06,135.07 376.52,227.33 1039.74,503.61 2297.87,18.09 2736.98,-1058.61 271.37,-665.43 147.02,-1387.73 -208.86,-1899.72 -291.53,-419.41 -733.41,-729.13 -1249.52,-833.31 -317.8,-64.15 -608.5,-61.94 -917.82,22.97 -218.93,60.1 -602.9,226.13 -724.51,362.06z"/>
   <path class="fil3" d="M4252.29 7089.07c202.43,-214.65 353.5,-285.8 529.64,-643.09 309.71,-628.23 318.45,-1251.86 0.59,-1884.44 -57.93,-115.29 -147.9,-252.38 -234.66,-348.95l-289.59 -300.54 -23.6 1.25c-27.63,53.46 -100.04,96.38 -149.58,142.25 -617.42,571.48 -788.37,1580.65 -375.73,2384.23 106.67,207.72 319.1,487.25 512.98,628.5 26.12,19.03 1.02,2.69 29.95,20.8z"/>
  </g>
 </g>
</svg>
